<svg width="24" height="24" viewBox="0 0 24 24" fill="none" xmlns="http://www.w3.org/2000/svg">
<path d="M7.48047 9.34692H2.98047V4.84692" stroke="#5F6C72" stroke-width="1.5" stroke-linecap="round" stroke-linejoin="round"/>
<path d="M17.8305 6.16873C17.0651 5.40224 16.1561 4.79417 15.1555 4.37929C14.155 3.9644 13.0824 3.75085 11.9992 3.75085C10.916 3.75085 9.84347 3.9644 8.84289 4.37929C7.84231 4.79417 6.93334 5.40224 6.16797 6.16873L2.98047 9.34685" stroke="#5F6C72" stroke-width="1.5" stroke-linecap="round" stroke-linejoin="round"/>
<path d="M16.5195 14.6531H21.0195V19.1531" stroke="#5F6C72" stroke-width="1.5" stroke-linecap="round" stroke-linejoin="round"/>
<path d="M6.16797 17.8312C6.93334 18.5977 7.84231 19.2058 8.84289 19.6206C9.84347 20.0355 10.916 20.2491 11.9992 20.2491C13.0824 20.2491 14.155 20.0355 15.1555 19.6206C16.1561 19.2058 17.0651 18.5977 17.8305 17.8312L21.018 14.6531" stroke="#5F6C72" stroke-width="1.5" stroke-linecap="round" stroke-linejoin="round"/>
</svg>
